<?xml version="1.0" encoding="UTF-8"?>
<svg id="Layer_1" data-name="Layer 1" xmlns="http://www.w3.org/2000/svg" viewBox="0 0 246.41 73.85">
  <defs>
    <style>
      .cls-1 {
        font-family: AgencyFB-Bold, 'Agency FB';
        font-size: 18.91px;
        font-weight: 700;
      }

      .cls-1, .cls-2 {
        fill: #12026e;
      }

      .cls-3 {
        fill: #0b778f;
      }

      .cls-3, .cls-2 {
        stroke-width: 0px;
      }
    </style>
  </defs>
  <g>
    <g>
      <path class="cls-2" d="M68.37,46.28c-.29,0-.53-.09-.7-.28-.17-.19-.26-.44-.26-.75s.09-.58.26-.76c.17-.18.41-.27.7-.27s.53.09.69.27c.17.18.25.43.25.76s-.09.58-.26.76c-.17.18-.4.27-.69.27ZM70.8,46.28c-.29,0-.53-.09-.7-.28s-.26-.44-.26-.75.09-.58.26-.76c.17-.18.41-.27.7-.27s.53.09.69.27c.17.18.25.43.25.76s-.09.57-.26.75c-.17.19-.4.28-.69.28Z"/>
      <path class="cls-2" d="M69.85,55.24c-1.16,0-2.05-.28-2.65-.83-.61-.55-.91-1.37-.91-2.46,0-.37.04-.73.11-1.07s.19-.67.34-.99c.31-.63.73-1.12,1.27-1.48.54-.36,1.17-.54,1.87-.54.32,0,.63.04.93.13.29.09.58.21.84.39.35.23.66.53.93.9.27.37.48.79.63,1.24.15.45.23.93.23,1.42,0,1.12-.3,1.96-.91,2.49s-1.5.8-2.7.8ZM69.84,53.5c.51,0,.88-.13,1.12-.4.24-.27.36-.67.36-1.22,0-.42-.07-.8-.2-1.14-.13-.34-.31-.62-.54-.83-.22-.21-.47-.31-.75-.31s-.51.1-.74.31c-.22.21-.4.48-.54.82-.13.34-.2.73-.2,1.16,0,.55.12.96.37,1.22.24.26.62.39,1.12.39Z"/>
      <path class="cls-2" d="M75.37,58.53c-.49,0-.93-.06-1.34-.17s-.84-.32-1.29-.63l.86-1.39c.25.16.47.27.67.33s.43.09.69.09c.38,0,.69-.14.92-.44s.35-.66.35-1.09v-7.21h2.13v7.31c0,.65-.12,1.21-.37,1.69-.25.48-.59.85-1.04,1.12-.44.26-.97.39-1.58.39Z"/>
      <path class="cls-2" d="M83.85,53.38s.07.02.07.06v1.59s-.02.07-.07.07h-3.92v-10.87h2.13v9.15h1.79Z"/>
      <path class="cls-2" d="M87.27,58.66c-.29,0-.53-.09-.7-.28-.17-.19-.26-.44-.26-.75s.08-.56.25-.75c.17-.19.4-.28.71-.28s.53.09.69.27c.17.18.25.43.25.76s-.09.57-.26.75-.4.28-.69.28Z"/>
      <path class="cls-2" d="M83.71,55.1s-.07-.02-.07-.07v-1.59s.02-.06.07-.06h5.78c-.12-.12-.24-.28-.35-.46-.11-.19-.21-.41-.29-.68-.08-.27-.16-.57-.24-.9-.07-.33-.15-.61-.24-.83-.09-.22-.21-.4-.34-.54s-.29-.24-.47-.29-.41-.09-.67-.09c-.33,0-.65.04-.94.13-.3.09-.62.22-.96.41l-.64-1.57c.42-.23.88-.4,1.37-.52.5-.11,1.01-.17,1.53-.17.31,0,.58.02.82.04.24.03.46.08.67.16.34.11.64.28.89.51s.46.5.62.84.29.74.36,1.21c.09.47.18.88.28,1.24.1.36.21.67.34.92s.25.44.39.59h.93s.07.02.07.06v1.59s-.02.07-.07.07h-8.84Z"/>
      <path class="cls-2" d="M92.83,45.76c-.29,0-.53-.09-.7-.28-.17-.19-.26-.44-.26-.75s.09-.58.26-.76c.17-.18.41-.27.7-.27s.53.09.69.27c.17.18.25.43.25.76s-.09.58-.26.76-.4.27-.69.27ZM95.26,45.76c-.29,0-.53-.09-.7-.28s-.26-.44-.26-.75.09-.58.26-.76.41-.27.7-.27.53.09.69.27c.17.18.25.43.25.76s-.09.56-.26.75c-.17.19-.4.28-.69.28Z"/>
      <path class="cls-2" d="M91.33,55.1s-.07-.02-.07-.07v-1.59s.02-.06.07-.06h2.22v-5.36h2.13v5.36h2.15s.07.02.07.06v1.59s-.02.07-.07.07h-6.49Z"/>
      <path class="cls-2" d="M96.61,55.1s-.07-.02-.07-.07v-1.59s.02-.06.07-.06h1.79v-9.15h2.13v9.15h1.86s.07.02.07.06v1.59s-.02.07-.07.07h-5.78Z"/>
      <path class="cls-2" d="M102.24,55.1s-.07-.02-.07-.07v-1.59s.02-.06.07-.06h1.79v-9.15h2.13v10.87h-3.92Z"/>
      <path class="cls-2" d="M108.09,53.38h4.78c-.1-.44-.2-.84-.32-1.19s-.25-.67-.39-.94c-.29-.54-.65-1.01-1.08-1.41-.43-.39-.96-.72-1.59-.98l.8-2c.84.33,1.57.79,2.19,1.37.62.58,1.14,1.29,1.56,2.14.42.85.75,1.86.99,3.02h1.87s.07.02.07.06v1.59s-.02.07-.07.07h-8.79v-1.72Z"/>
      <path class="cls-2" d="M116.74,55.1s-.07-.02-.07-.07v-1.59s.02-.06.07-.06h5.78c-.12-.12-.24-.28-.35-.46-.11-.19-.21-.41-.29-.68-.08-.27-.16-.57-.24-.9-.07-.33-.15-.61-.24-.83-.09-.22-.21-.4-.34-.54s-.29-.24-.47-.29-.41-.09-.67-.09c-.33,0-.65.04-.94.13-.3.09-.62.22-.96.41l-.64-1.57c.42-.23.88-.4,1.37-.52.5-.11,1.01-.17,1.53-.17.31,0,.58.02.82.04.24.03.46.08.67.16.34.11.64.28.89.51s.46.5.62.84.29.74.36,1.21c.09.47.18.88.28,1.24.1.36.21.67.34.92s.25.44.39.59h.93s.07.02.07.06v1.59s-.02.07-.07.07h-8.84Z"/>
      <path class="cls-2" d="M126.94,45.76c-.29,0-.53-.09-.7-.28-.17-.19-.26-.44-.26-.75s.09-.58.26-.76c.17-.18.41-.27.7-.27s.53.09.69.27c.17.18.25.43.25.76s-.09.58-.26.76-.4.27-.69.27ZM129.37,45.76c-.29,0-.53-.09-.7-.28s-.26-.44-.26-.75.09-.58.26-.76.41-.27.7-.27.53.09.69.27c.17.18.25.43.25.76s-.09.56-.26.75c-.17.19-.4.28-.69.28Z"/>
      <path class="cls-2" d="M125.44,55.1s-.07-.02-.07-.07v-1.59s.02-.06.07-.06h2.22v-5.36h2.13v5.36h2.15s.07.02.07.06v1.59s-.02.07-.07.07h-6.49Z"/>
      <path class="cls-2" d="M132.33,53.38c-.12-.29-.22-.61-.29-.94-.07-.33-.1-.68-.1-1.04,0-.41.07-.86.21-1.34.14-.48.31-.89.52-1.24.46-.27.95-.47,1.47-.61s.97-.21,1.37-.21c.32,0,.63.04.93.11.29.07.58.17.84.31.53.28.95.67,1.24,1.18.29.51.44,1.1.44,1.78,0,.27-.02.52-.06.77-.04.24-.11.48-.21.71.17.19.37.32.59.4s.5.11.84.11h.07s.07.02.07.06v1.59s-.02.07-.07.07h-.07c-.51,0-.94-.07-1.32-.21-.37-.14-.72-.39-1.04-.74-.36.31-.78.55-1.25.71-.47.16-.96.24-1.45.24h-4.35s-.07-.02-.07-.07v-1.59s.02-.06.07-.06h1.62ZM133.92,51.71c0,.24.03.5.09.78.06.28.14.58.24.89h.54c.38,0,.72-.09,1.03-.26.31-.18.55-.42.73-.72s.27-.64.27-1c0-.5-.12-.91-.37-1.21-.25-.3-.58-.45-.99-.45-.21,0-.43.03-.65.1-.22.07-.45.17-.68.3-.07.25-.12.5-.16.77s-.06.53-.06.81Z"/>
      <path class="cls-2" d="M140.05,55.1s-.07-.02-.07-.07v-1.59s.02-.06.07-.06h1.79v-9.15h2.13v10.87h-3.92Z"/>
      <path class="cls-2" d="M145.76,44.23h2.13v10.87h-2.13v-10.87Z"/>
      <path class="cls-2" d="M150.16,56.86c0-.42.08-.83.25-1.22.17-.39.42-.79.76-1.17s.78-.77,1.32-1.15c-.4-.38-.77-.82-1.1-1.3-.33-.49-.61-.99-.83-1.52-.22-.53-.37-1.05-.46-1.57.37-.3.78-.57,1.24-.79.45-.22.92-.4,1.4-.52.48-.12.94-.19,1.38-.19.68,0,1.31.07,1.91.21s1.16.36,1.68.64c0,.98-.2,1.89-.6,2.73-.4.84-.98,1.57-1.75,2.2.19.06.4.1.62.13.22.03.45.04.69.04h1.64s.07.02.07.06v1.59s-.02.07-.07.07h-1.82c-.25,0-.52-.03-.82-.09-.3-.06-.61-.15-.92-.28-.31-.12-.61-.27-.89-.43-.57.43-.98.84-1.24,1.22-.25.38-.38.79-.38,1.22,0,.4.14.71.41.94.27.22.67.34,1.19.34.32,0,.66-.03,1.01-.08.35-.05.71-.13,1.09-.22l.24,1.56c-.34.11-.67.21-.97.28-.31.07-.61.12-.9.16-.29.03-.6.05-.9.05-.65,0-1.22-.12-1.71-.37-.49-.24-.87-.58-1.14-1.02-.27-.44-.41-.94-.41-1.52ZM152.24,49.68c.08.26.17.51.28.75.11.24.23.48.37.7.14.22.29.44.47.64s.36.4.56.59c.33-.25.62-.53.87-.84.25-.31.45-.65.61-1.01.16-.36.25-.73.28-1.12-.24-.09-.48-.16-.74-.2-.25-.04-.55-.06-.88-.06-.2,0-.42.03-.66.08s-.46.12-.67.2c-.21.08-.37.17-.51.27Z"/>
      <path class="cls-2" d="M164.26,46.22c-.3,0-.53-.09-.7-.28s-.26-.44-.26-.75.08-.58.25-.76.4-.27.71-.27.53.09.69.27.25.43.25.76-.09.56-.26.75c-.17.19-.4.28-.69.28Z"/>
      <path class="cls-2" d="M158.17,55.1s-.07-.02-.07-.07v-1.59s.02-.06.07-.06h1.69v-5.36h2.13v2.5c.3-.59.63-1.08,1.02-1.47s.81-.68,1.29-.88,1-.29,1.57-.29c1.17,0,2.06.31,2.65.93.6.62.89,1.57.89,2.86v3.43h-11.24ZM167.28,53.38v-1.76c0-.7-.16-1.21-.48-1.54-.32-.33-.81-.49-1.48-.49-.43,0-.84.1-1.23.29s-.76.49-1.11.89c-.35.4-.68.89-.99,1.49v1.12h5.29Z"/>
      <path class="cls-2" d="M173.38,58.53c-.65,0-1.21-.05-1.68-.15s-.93-.28-1.37-.54l.83-1.56c.39.2.76.34,1.1.42.34.08.7.12,1.07.12.54,0,.96-.15,1.25-.44.29-.3.44-.7.44-1.22v-.07h-1.42c-1.02,0-1.8-.29-2.35-.87s-.82-1.4-.82-2.47c0-.81.2-1.49.59-2.05.4-.56.94-.98,1.62-1.27.69-.29,1.46-.43,2.33-.43h2.17v7.12c0,1.09-.33,1.92-.99,2.51-.66.59-1.59.88-2.79.88ZM175.03,53.38v-3.65h-.46c-.61,0-1.09.17-1.43.52-.34.34-.51.83-.51,1.46,0,.57.12.99.35,1.27.23.27.59.41,1.07.41h.99ZM178.95,53.38s.07.02.07.06v1.59s-.02.07-.07.07h-2.59s-.07-.02-.07-.07v-1.59s.02-.06.07-.06h2.59Z"/>
      <path class="cls-2" d="M178.8,55.1s-.07-.02-.07-.07v-1.59s.02-.06.07-.06h1.79v-9.15h2.13v10.87h-3.92Z"/>
      <path class="cls-2" d="M184.51,44.23h2.13v10.87h-2.13v-10.87Z"/>
      <path class="cls-2" d="M191.03,45.63c-.29,0-.53-.09-.7-.28-.17-.19-.26-.44-.26-.75s.09-.58.26-.76c.17-.18.41-.27.7-.27s.53.09.69.27c.17.18.25.43.25.76s-.09.58-.26.76-.4.27-.69.27ZM193.46,45.63c-.29,0-.53-.09-.7-.28s-.26-.44-.26-.75.09-.58.26-.76.41-.27.7-.27.53.09.69.27c.17.18.25.43.25.76s-.09.56-.26.75c-.17.19-.4.28-.69.28Z"/>
      <path class="cls-2" d="M193.03,55.1c-.88,0-1.63-.14-2.25-.42-.62-.28-1.1-.68-1.43-1.2-.33-.52-.49-1.15-.49-1.89,0-.77.18-1.42.54-1.95s.86-.93,1.49-1.21,1.34-.41,2.15-.41h.4v-.7h2.14v6.06h1.79s.07.02.07.06v1.59s-.02.07-.07.07h-4.33ZM193.45,53.38v-3.65h-.37c-.65,0-1.15.16-1.5.48-.35.32-.53.79-.53,1.39,0,.56.17,1,.51,1.31.34.31.84.46,1.49.46h.4Z"/>
      <path class="cls-2" d="M206.39,55.1c-.41,0-.8-.09-1.17-.27-.37-.18-.73-.45-1.07-.8-.27.35-.6.62-.99.8-.4.18-.86.27-1.39.27h-5.61s-.07-.02-.07-.07v-1.59s.02-.06.07-.06h1.79v-4.25h2.13v4.25h1.22c.48,0,.82-.13,1.04-.39.22-.26.33-.68.33-1.27v-2.59h2.13v2.76c0,.11,0,.22,0,.33s-.02.21-.04.31c.24.31.47.54.7.66.23.12.53.19.9.19h.89v-5.36h2.13v5.36h1.86s.07.02.07.06v1.59s-.02.07-.07.07h-4.83Z"/>
      <path class="cls-2" d="M221.32,55.1c-.41,0-.8-.09-1.17-.27-.37-.18-.73-.45-1.07-.8-.27.35-.6.62-.99.8-.4.18-.86.27-1.39.27h-5.61s-.07-.02-.07-.07v-1.59s.02-.06.07-.06h1.79v-4.25h2.13v4.25h1.22c.48,0,.82-.13,1.04-.39.22-.26.33-.68.33-1.27v-2.59h2.13v2.76c0,.11,0,.22,0,.33s-.02.21-.04.31c.24.31.47.54.7.66.23.12.53.19.9.19h.89v-5.36h2.13v7.08h-2.97Z"/>
      <path class="cls-2" d="M227.48,45.92l.82-.13c-.19-.09-.35-.23-.46-.39s-.18-.36-.18-.58c0-.41.14-.73.43-.96s.67-.34,1.14-.34.86.09,1.17.26l-.29.73c-.12-.07-.25-.11-.38-.14-.13-.03-.26-.04-.39-.04-.21,0-.38.06-.5.19-.12.12-.19.29-.19.5,0,.15.04.28.12.39s.18.19.31.25c.25-.05.46-.08.64-.11.18-.02.33-.04.45-.06s.23-.02.33-.02v.83c-.17,0-.41.03-.72.06-.31.03-.63.07-.97.11-.33.04-.62.07-.87.11-.25.04-.4.06-.46.08v-.73Z"/>
      <path class="cls-2" d="M228.41,58.53c-.65,0-1.21-.05-1.68-.15s-.93-.28-1.37-.54l.83-1.56c.39.2.76.34,1.1.42.34.08.7.12,1.07.12.54,0,.96-.15,1.25-.44.29-.3.44-.7.44-1.22v-.07h-1.42c-1.02,0-1.8-.29-2.35-.87s-.82-1.4-.82-2.47c0-.81.2-1.49.59-2.05.4-.56.94-.98,1.62-1.27.69-.29,1.46-.43,2.33-.43h2.17v7.12c0,1.09-.33,1.92-.99,2.51-.66.59-1.59.88-2.79.88ZM230.05,53.38v-3.65h-.46c-.61,0-1.09.17-1.43.52-.34.34-.51.83-.51,1.46,0,.57.12.99.35,1.27.23.27.59.41,1.07.41h.99ZM233.97,53.38s.07.02.07.06v1.59s-.02.07-.07.07h-2.59s-.07-.02-.07-.07v-1.59s.02-.06.07-.06h2.59Z"/>
      <path class="cls-2" d="M232.76,55.1s-.07-.02-.07-.07v-1.59s.02-.06.07-.06h1.62c-.12-.29-.22-.61-.29-.94-.07-.33-.1-.68-.1-1.04,0-.41.07-.86.21-1.34.14-.48.31-.89.52-1.24.46-.27.95-.47,1.47-.61s.97-.21,1.37-.21c.32,0,.63.04.93.11.29.07.58.17.84.31.53.28.95.67,1.24,1.18.29.51.44,1.1.44,1.78,0,.36-.04.71-.12,1.03s-.21.62-.38.9c-.35.56-.83,1-1.42,1.31-.6.31-1.26.46-1.98.46h-4.35ZM235.96,51.71c0,.24.03.5.09.78.06.28.14.58.24.89h.54c.38,0,.72-.09,1.03-.26.31-.18.55-.42.73-.72s.27-.64.27-1c0-.5-.12-.91-.37-1.21-.25-.3-.58-.45-.99-.45-.21,0-.43.03-.65.1-.22.07-.45.17-.68.3-.07.25-.12.5-.16.77s-.06.53-.06.81Z"/>
    </g>
    <text class="cls-1" transform="translate(66.65 39.56)"><tspan x="0" y="0">UNITED MODE TRADING EST.</tspan></text>
  </g>
  <g>
    <path class="cls-2" d="M45.6,8.61v59.78h-19.67l-1.78-1.69-16.01-15.16-.15-.15V5.37c2.47.02,6.14.52,9.82,2.81,3.44,2.13,5.31,5.22,6.35,7.52v35.85h19.19V5.66l2.27,2.95Z"/>
    <polygon class="cls-3" points="51.34 16.08 51.34 62.17 49.98 63.44 49.98 14.31 51.34 16.08"/>
    <polygon class="cls-3" points="48.62 12.54 48.62 64.71 47.26 65.98 47.26 10.77 48.62 12.54"/>
    <polygon class="cls-3" points="55.5 10.23 55.5 58.29 54.44 59.27 54.44 12.13 55.5 10.23"/>
    <polygon class="cls-3" points="53.31 14.17 53.31 60.33 52.32 61.25 52.32 15.94 53.31 14.17"/>
    <polygon class="cls-3" points="58.22 5.34 58.22 55.75 56.86 57.02 56.86 7.78 58.22 5.34"/>
  </g>
</svg>